<svg xmlns="http://www.w3.org/2000/svg" viewBox="0 0 1200 340" width="1200" height="340" role="img" aria-label="basemind — cybernetic core">
<title>basemind — cybernetic core</title>
<defs>
<radialGradient id="gp" gradientUnits="userSpaceOnUse" cx="600" cy="170" r="504" gradientTransform="translate(600 170) scale(1 0.46) translate(-600 -170)"><stop offset="0%" stop-color="#965aff" stop-opacity="0.1"/><stop offset="72%" stop-color="#965aff" stop-opacity="0"/></radialGradient>
<radialGradient id="gr" gradientUnits="userSpaceOnUse" cx="444" cy="170" r="408" gradientTransform="translate(444 170) scale(1 0.55) translate(-444 -170)"><stop offset="0%" stop-color="#ff476a" stop-opacity="0.13"/><stop offset="66%" stop-color="#ff476a" stop-opacity="0"/></radialGradient>
<radialGradient id="gb" gradientUnits="userSpaceOnUse" cx="756" cy="170" r="408" gradientTransform="translate(756 170) scale(1 0.55) translate(-756 -170)"><stop offset="0%" stop-color="#3f8bff" stop-opacity="0.14"/><stop offset="66%" stop-color="#3f8bff" stop-opacity="0"/></radialGradient>
<radialGradient id="vg" gradientUnits="userSpaceOnUse" cx="600" cy="170" r="660" gradientTransform="translate(600 170) scale(1 0.62) translate(-600 -170)">
<stop offset="58%" stop-color="#04060c" stop-opacity="0"/><stop offset="100%" stop-color="#04060c" stop-opacity="0.6"/></radialGradient>
<linearGradient id="rule" x1="0" y1="0" x2="1" y2="0">
<stop offset="0%" stop-color="#9a5cff" stop-opacity="0"/><stop offset="50%" stop-color="#9a5cff" stop-opacity="0.75"/><stop offset="100%" stop-color="#9a5cff" stop-opacity="0"/></linearGradient>
<clipPath id="r"><rect width="1200" height="340" rx="18"/></clipPath>
</defs>
<g clip-path="url(#r)">
<rect width="1200" height="340" fill="#080b13"/>
<rect width="1200" height="340" fill="url(#gp)"/>
<rect width="1200" height="340" fill="url(#gr)"/>
<rect width="1200" height="340" fill="url(#gb)"/>
<rect width="1200" height="340" fill="url(#vg)"/>
<g transform="translate(314.00 164.38) scale(0.06800 -0.06800)"><path transform="translate(0.00 0)" d="M125 125V250H0V1000H250V750H750V625H875V250H750V125ZM250 250H625V625H250Z" fill="#ff5d7c"/><path transform="translate(1058.82 0)" d="M125 125V250H0V375H125V500H625V625H125V750H750V625H875V125ZM250 250H625V375H250Z" fill="#ff5d7c"/><path transform="translate(2117.65 0)" d="M0 125V250H625V375H125V500H0V625H125V750H750V625H250V500H750V375H875V250H750V125Z" fill="#ff5d7c"/><path transform="translate(3176.47 0)" d="M125 125V250H0V625H125V750H750V625H875V375H250V250H750V125ZM250 500H625V625H250Z" fill="#ff5d7c"/><path transform="translate(4235.29 0)" d="M0 125V750H750V625H875V125H625V625H500V125H250V625H125V125Z" fill="#5b9bff"/><path transform="translate(5294.12 0)" d="M375 875V1000H625V875ZM125 125V250H375V625H250V750H625V250H875V125Z" fill="#5b9bff"/><path transform="translate(6352.94 0)" d="M0 125V750H750V625H875V125H625V625H250V125Z" fill="#5b9bff"/><path transform="translate(7411.76 0)" d="M125 125V250H0V625H125V750H625V1000H875V125ZM250 250H625V625H250Z" fill="#5b9bff"/></g>
<rect x="470.0" y="189.9" width="260.0" height="4" fill="url(#rule)"/>
<g transform="translate(442.76 245.88) scale(0.01800 -0.01800)"><path transform="translate(0.00 0)" d="M250 125V250H125V375H0V750H125V875H250V1000H750V875H875V750H625V875H375V750H250V375H375V250H625V375H875V250H750V125Z" fill="#8a93b2"/><path transform="translate(1176.47 0)" d="M375 125V500H250V625H125V1000H375V625H625V1000H875V625H750V500H625V125Z" fill="#8a93b2"/><path transform="translate(2352.94 0)" d="M0 125V1000H750V875H875V625H750V500H875V250H750V125ZM250 625H625V875H250ZM250 250H625V500H250Z" fill="#8a93b2"/><path transform="translate(3529.41 0)" d="M0 125V1000H875V875H250V625H750V500H250V250H875V125Z" fill="#8a93b2"/><path transform="translate(4705.88 0)" d="M0 125V1000H750V875H875V500H625V375H750V250H875V125H500V250H375V375H250V125ZM250 500H500V625H625V875H250Z" fill="#8a93b2"/><path transform="translate(5882.35 0)" d="M0 125V1000H250V875H375V750H500V625H625V1000H875V125H625V375H500V500H375V625H250V125Z" fill="#8a93b2"/><path transform="translate(7058.82 0)" d="M0 125V1000H875V875H250V625H750V500H250V250H875V125Z" fill="#8a93b2"/><path transform="translate(8235.29 0)" d="M375 125V875H125V1000H875V875H625V125Z" fill="#8a93b2"/><path transform="translate(9411.76 0)" d="M125 125V250H375V875H125V1000H875V875H625V250H875V125Z" fill="#8a93b2"/><path transform="translate(10588.24 0)" d="M250 125V250H125V375H0V750H125V875H250V1000H750V875H875V750H625V875H375V750H250V375H375V250H625V375H875V250H750V125Z" fill="#8a93b2"/><path transform="translate(11764.71 0)" d="" fill="#8a93b2"/><path transform="translate(12941.18 0)" d="M250 125V250H125V375H0V750H125V875H250V1000H750V875H875V750H625V875H375V750H250V375H375V250H625V375H875V250H750V125Z" fill="#8a93b2"/><path transform="translate(14117.65 0)" d="M125 125V250H0V875H125V1000H750V875H875V250H750V125ZM250 250H625V875H250Z" fill="#8a93b2"/><path transform="translate(15294.12 0)" d="M0 125V1000H750V875H875V500H625V375H750V250H875V125H500V250H375V375H250V125ZM250 500H500V625H625V875H250Z" fill="#8a93b2"/><path transform="translate(16470.59 0)" d="M0 125V1000H875V875H250V625H750V500H250V250H875V125Z" fill="#8a93b2"/></g>
</g>
</svg>
